<?xml version="1.0" standalone="no"?>
<!DOCTYPE svg PUBLIC "-//W3C//DTD SVG 20010904//EN"
 "http://www.w3.org/TR/2001/REC-SVG-20010904/DTD/svg10.dtd">
<svg version="1.0" xmlns="http://www.w3.org/2000/svg"
 width="290.000000pt" height="290.000000pt" viewBox="0 0 290.000000 290.000000"
 preserveAspectRatio="xMidYMid meet">

<g transform="translate(0.000000,290.000000) scale(0.100000,-0.100000)"
fill="#000000" stroke="none">
<path d="M1150 2889 c-78 -10 -205 -51 -280 -90 -47 -24 -84 -36 -170 -54 -9
-2 -50 -17 -92 -35 -88 -37 -158 -91 -210 -164 -21 -28 -55 -73 -77 -101 -59
-75 -78 -113 -117 -226 -48 -143 -61 -268 -46 -442 17 -183 16 -201 -15 -295
-23 -70 -36 -94 -85 -147 -76 -83 -75 -96 2 -20 45 45 68 78 92 135 34 82 36
109 27 445 -6 218 44 382 163 540 148 194 253 270 427 309 40 9 85 16 99 16
13 0 30 7 36 15 6 9 56 31 111 50 164 58 358 64 503 17 169 -56 326 -172 425
-317 59 -85 88 -141 81 -159 -3 -9 3 -19 16 -26 11 -6 18 -14 16 -19 -3 -4 0
-25 5 -47 5 -21 12 -64 15 -94 l5 -55 -36 85 c-20 47 -38 91 -42 98 -7 15 9
16 25 0 14 -14 16 0 4 20 -5 7 -16 10 -26 6 -17 -7 -17 -24 0 -68 3 -9 2 -16
-4 -16 -5 0 -12 13 -15 29 -5 21 -11 28 -24 26 -10 -2 -21 -4 -25 -4 -12 -1
-9 -41 2 -41 6 0 10 8 11 18 1 40 18 -25 18 -75 l1 -52 -47 20 c-26 11 -51 26
-55 32 -5 7 -8 8 -8 2 0 -6 -14 -9 -33 -7 -28 3 -37 11 -57 50 -32 61 -92 144
-149 207 -25 28 -59 67 -76 86 -16 19 -25 28 -18 19 35 -46 108 -264 119 -356
6 -46 4 -53 -14 -63 -46 -25 -60 -15 -68 47 -7 62 -34 154 -58 199 l-14 28 1
-27 c1 -14 6 -24 11 -20 5 3 6 -2 3 -12 -4 -10 -3 -15 3 -11 6 3 10 -2 11 -12
4 -56 8 -84 17 -114 17 -53 18 -85 3 -103 -24 -28 -36 -18 -55 47 -18 61 -143
333 -151 325 -2 -2 10 -33 28 -68 17 -36 50 -121 73 -190 l43 -125 -22 -12
c-12 -7 -29 -12 -38 -13 -9 0 -41 -8 -73 -19 -56 -18 -57 -18 -67 1 -13 24
-12 24 37 42 l39 14 -42 -1 c-23 -1 -39 -5 -37 -9 5 -7 -11 -11 -41 -11 -6 0
-17 -7 -25 -15 -12 -13 -11 -14 12 -9 19 5 28 2 32 -9 10 -26 7 -33 -24 -49
-35 -18 -47 -19 -47 -2 0 6 -4 20 -8 30 -5 11 -3 17 6 17 8 0 7 4 -4 13 -9 7
-28 57 -44 116 -34 131 -42 118 -10 -16 l24 -101 -33 -16 c-30 -14 -33 -14
-38 2 -2 9 -17 70 -32 135 -16 65 -30 115 -31 110 -2 -5 8 -69 22 -143 l25
-135 -52 -49 c-29 -26 -39 -38 -23 -27 80 57 76 55 86 40 5 -8 9 -19 9 -26 0
-9 -122 -113 -134 -113 -9 0 -13 40 -5 46 5 3 8 13 8 22 -1 15 -2 15 -6 0 -2
-10 -8 -18 -13 -18 -9 0 -36 75 -43 120 l-4 25 -2 -25 c0 -14 6 -53 14 -85 9
-33 13 -71 10 -85 -4 -19 -3 -21 5 -10 9 13 11 13 20 0 7 -11 4 -21 -11 -35
-20 -20 -20 -20 -35 0 -42 57 -82 248 -95 455 l-7 125 3 -150 c6 -223 53 -438
103 -460 12 -6 22 -19 22 -31 0 -33 46 -159 98 -268 101 -211 214 -356 347
-445 110 -73 191 -97 265 -78 14 4 7 -2 -15 -13 -106 -51 -281 16 -423 163
-84 87 -99 106 -182 242 -71 116 -119 211 -155 308 -20 52 -29 62 -19 20 22
-93 160 -365 241 -474 61 -82 201 -210 268 -246 33 -17 84 -35 112 -39 64 -8
60 -24 -6 -24 -155 0 -314 78 -453 223 -47 49 -125 171 -127 200 0 4 -12 28
-25 55 -102 202 -189 482 -205 665 l-8 92 -1 -80 c-1 -68 21 -216 44 -287 4
-14 0 -18 -20 -18 -46 0 -95 -31 -107 -68 -30 -90 44 -261 135 -309 21 -12 33
-111 21 -188 l-7 -47 -15 28 c-120 223 -156 368 -148 594 3 79 7 160 10 180 3
22 -1 14 -11 -20 -23 -83 -28 -276 -9 -379 19 -104 67 -256 105 -331 39 -77
125 -190 171 -224 50 -38 44 -43 -12 -12 -85 48 -131 102 -199 233 -39 76 -50
107 -85 253 -7 30 -13 46 -14 34 -2 -49 53 -234 95 -314 89 -174 167 -232 374
-281 l55 -13 -35 -7 c-47 -10 -160 14 -223 49 -62 33 -148 110 -188 168 -39
57 -95 190 -114 270 -8 35 -20 123 -27 196 -10 116 -9 148 6 252 18 128 16
165 -4 64 -20 -102 -28 -234 -19 -330 12 -125 44 -275 70 -324 8 -16 6 -36
-10 -90 -39 -131 -133 -255 -246 -323 -47 -28 -69 -35 -138 -40 -66 -5 -76 -8
-51 -14 38 -10 141 6 182 27 16 8 54 36 85 61 32 25 57 43 57 40 0 -15 -42
-86 -78 -132 -44 -55 -146 -138 -198 -159 -17 -7 -42 -11 -55 -9 -22 4 -22 3
-6 -9 42 -32 164 -42 250 -21 20 5 23 2 25 -27 1 -18 11 -49 20 -69 l18 -37
-25 -15 c-14 -8 -48 -36 -76 -60 -27 -25 -60 -53 -73 -63 -30 -25 -63 -124
-70 -206 l-5 -68 267 0 c146 0 266 4 266 8 0 16 -31 118 -55 177 -13 33 -38
97 -55 142 -33 86 -59 119 -85 110 -20 -8 -19 6 3 32 11 14 34 23 65 27 41 6
55 2 106 -25 32 -17 66 -31 74 -31 9 0 22 -6 30 -14 11 -12 61 -247 82 -389
l6 -37 415 0 415 0 -7 38 c-3 20 -19 75 -35 121 -16 47 -27 86 -25 88 2 2 21
-33 42 -79 22 -45 49 -100 60 -122 l22 -41 87 -3 c99 -3 94 -11 56 88 -17 45
-17 50 -3 30 9 -14 29 -38 44 -55 25 -28 28 -29 43 -14 16 16 13 23 -37 100
-30 46 -66 102 -80 124 l-25 40 49 0 c57 0 65 9 74 79 l7 49 19 -49 c11 -27
37 -86 60 -132 25 -51 44 -108 50 -150 6 -37 12 -77 14 -89 l4 -22 299 -1 300
0 51 27 c28 14 64 40 80 57 23 23 30 26 30 13 0 -10 -11 -22 -25 -29 -13 -6
-22 -15 -19 -19 3 -5 2 -9 -3 -9 -4 0 -19 -9 -33 -20 l-25 -20 108 0 107 0 0
28 c0 15 -9 41 -20 57 -13 19 -18 39 -15 55 4 17 -1 33 -12 45 -10 11 -26 37
-35 57 -10 21 -24 38 -32 38 -8 0 -17 14 -21 33 -9 41 -71 166 -96 192 -59 62
-66 78 -78 180 -24 205 -47 260 -121 293 l-35 16 61 6 c98 11 154 66 154 152
-1 30 -2 31 -12 13 -23 -40 -40 -46 -118 -42 -41 3 -99 13 -127 22 -94 32
-263 193 -263 251 0 29 14 30 47 4 91 -72 278 -78 404 -14 50 25 79 59 105
119 20 50 12 68 -10 22 -25 -54 -64 -71 -152 -64 -84 6 -154 38 -237 107 -68
56 -140 152 -150 199 -4 20 -12 119 -17 221 -11 224 -34 333 -90 437 -109 202
-273 351 -483 437 -78 32 -257 43 -397 25z m554 -574 c17 -27 39 -67 48 -87
l17 -37 -29 -6 c-41 -9 -38 -21 5 -22 20 -1 42 -6 50 -13 8 -6 29 -14 47 -16
51 -8 107 -24 112 -32 11 -19 -10 -30 -44 -23 -39 8 -123 -18 -150 -46 -8 -9
-9 -13 -2 -9 15 9 15 1 1 -26 -6 -11 -7 -18 -1 -15 5 4 7 -14 5 -46 l-4 -52
15 40 c9 22 16 41 16 42 0 1 7 -1 17 -4 10 -4 14 -2 10 4 -7 12 17 36 39 39 7
1 18 -4 25 -12 9 -10 15 -11 25 -3 10 8 16 3 28 -20 27 -51 17 -130 -18 -153
-6 -5 -2 -8 10 -8 16 0 26 10 36 36 l15 36 14 -48 c9 -31 14 -96 14 -174 0
-173 -31 -266 -143 -422 -40 -57 -64 -80 -88 -88 -74 -25 -441 16 -540 59 -84
38 -241 304 -286 486 l-21 86 72 69 c43 40 88 74 109 81 20 6 78 33 128 59 49
27 126 58 170 70 43 11 95 25 114 31 19 6 58 15 85 20 78 16 79 20 56 136 -12
55 -28 116 -36 136 -8 20 -15 42 -15 48 0 15 52 -50 94 -116z m326 -107 c5
-18 15 -58 23 -88 45 -164 59 -258 62 -410 3 -201 -2 -280 -21 -280 -8 0 -14
-7 -14 -15 0 -8 4 -15 10 -15 5 0 7 -14 3 -32 -10 -54 -17 -68 -30 -60 -10 6
-10 27 -3 87 5 44 13 159 16 255 6 153 4 190 -15 292 -11 64 -26 129 -32 145
l-11 28 -14 -30 -13 -30 -1 38 c0 23 4 36 10 32 6 -3 10 -2 10 4 0 5 -4 13
-10 16 -15 9 -13 92 3 98 16 6 17 4 27 -35z m-177 -55 c-7 -2 -21 -2 -30 0
-10 3 -4 5 12 5 17 0 24 -2 18 -5z m102 -23 c2 -4 -7 -5 -20 -2 -14 2 -27 8
-30 12 -2 4 7 5 20 2 14 -2 27 -8 30 -12z m88 -161 c31 -175 19 -525 -23 -676
-24 -86 -78 -200 -110 -228 l-22 -20 20 35 c22 35 43 119 62 249 6 41 15 79
19 85 5 6 17 49 27 96 21 105 15 252 -16 359 -11 40 -19 79 -17 85 2 6 0 21
-4 33 -6 17 -2 29 16 51 13 16 23 32 21 34 -1 3 0 3 4 -1 4 -3 14 -49 23 -102z
m-903 -1 c-28 -19 -34 -16 -44 25 -6 24 -3 29 26 42 33 13 33 13 38 -18 4 -26
1 -35 -20 -49z m760 32 c0 -5 -2 -10 -4 -10 -3 0 -8 5 -11 10 -3 6 -1 10 4 10
6 0 11 -4 11 -10z m-1228 -292 c17 -14 31 -58 18 -58 -4 0 -10 7 -14 15 -3 9
-19 15 -41 15 -40 0 -48 -13 -61 -96 -5 -38 -9 -44 -15 -29 -4 11 -8 42 -8 68
-1 40 4 52 25 72 29 27 71 32 96 13z m1529 -103 c-1 -5 1 -7 5 -3 4 4 31 -14
60 -41 55 -51 120 -86 194 -107 l45 -13 -46 0 c-87 -2 -224 55 -296 122 -19
17 -23 31 -23 80 l0 60 32 -44 c18 -24 31 -48 29 -54z m-1512 21 c28 -29 32
-38 26 -68 -5 -27 -2 -37 16 -53 l22 -20 -12 23 c-7 13 -11 28 -9 34 2 6 9 -2
15 -18 22 -63 35 -106 31 -109 -2 -2 -28 7 -58 20 -49 22 -52 23 -31 5 14 -12
43 -26 67 -32 28 -8 47 -21 58 -40 17 -27 17 -28 -6 -28 -45 0 -122 36 -167
78 -25 24 -40 41 -33 37 17 -9 15 3 -9 41 -16 27 -19 42 -13 81 3 27 11 56 16
66 14 27 51 20 87 -17z m1512 -115 c74 -56 149 -83 246 -89 70 -4 91 -1 132
17 27 11 53 21 57 21 20 0 -44 -51 -89 -72 -44 -19 -69 -23 -157 -23 -96 0
-110 2 -160 29 -94 48 -110 72 -94 134 4 12 8 22 10 22 2 0 27 -18 55 -39z
m-43 -220 c15 -24 15 -24 -27 -10 -23 8 -29 14 -21 24 5 6 7 15 4 18 -3 3 -3
11 1 17 5 8 11 5 19 -8 6 -11 17 -29 24 -41z m-1401 2 c10 -64 7 -161 -6 -197
-10 -24 -14 -26 -27 -15 -13 11 -15 25 -9 79 4 36 7 91 6 123 -2 45 1 57 13
57 10 0 17 -16 23 -47z m87 4 c10 -37 7 -158 -5 -198 -9 -27 -20 -41 -40 -48
-15 -5 -29 -8 -31 -5 -3 2 2 36 10 76 11 54 13 90 6 138 l-9 65 32 -3 c22 -3
33 -10 37 -25z m1264 -27 c29 -11 63 -20 76 -20 13 0 56 -25 98 -57 70 -54 78
-65 126 -163 57 -114 59 -127 37 -169 l-14 -28 -46 42 c-25 23 -45 48 -45 54
0 7 -10 36 -22 64 -26 63 -98 133 -183 178 -67 35 -94 63 -95 97 0 27 2 27 68
2z m-181 -63 c-6 -42 -15 -79 -21 -84 -2 -2 -12 16 -21 41 -17 44 -17 45 5 76
20 28 24 30 32 15 6 -9 8 -31 5 -48z m113 -3 c0 -38 -72 -163 -119 -207 -52
-49 -83 -58 -116 -34 -17 13 -16 14 14 20 49 10 126 90 168 173 33 67 53 85
53 48z m-1056 -116 c7 -5 6 -8 -4 -9 -27 -1 -85 -9 -105 -14 -21 -4 -21 -3 -7
69 l15 74 45 -57 c25 -31 50 -59 56 -63z m426 48 l115 -31 3 -59 c2 -32 -1
-62 -5 -67 -13 -12 -149 56 -204 102 -27 22 -59 54 -70 71 l-22 30 34 -7 c19
-4 86 -22 149 -39z m465 -73 c-18 -28 -36 -22 -70 23 l-26 34 32 28 32 29 23
-46 c21 -41 22 -47 9 -68z m248 91 c61 -31 159 -112 151 -125 -3 -5 -2 -9 3
-9 4 0 13 -12 20 -25 11 -25 11 -25 -23 5 -19 16 -41 30 -49 30 -8 0 -31 22
-50 49 -37 52 -55 64 -80 55 -14 -6 -19 -18 -28 -69 -3 -17 -6 -15 -20 12 -16
30 -16 34 0 68 9 19 18 35 20 35 2 0 27 -12 56 -26z m-1583 -79 c16 -18 16
-26 4 -84 -7 -35 -23 -82 -35 -105 -12 -23 -29 -55 -38 -73 -27 -55 -29 -37
-3 40 18 51 26 102 30 176 3 77 7 99 15 85 5 -11 18 -28 27 -39z m1251 -6 c30
-61 31 -62 7 -55 -12 4 -34 9 -46 12 -13 2 -49 11 -80 19 -31 8 -67 15 -80 15
-20 0 -23 4 -20 28 3 27 4 27 88 33 47 3 88 6 92 7 4 1 22 -26 39 -59z m710
31 c42 0 44 -17 3 -23 -47 -8 -96 2 -111 21 -22 27 -15 31 34 16 25 -8 59 -14
74 -14z m117 -6 c-12 -20 -35 -45 -52 -55 -51 -31 -146 -22 -146 13 0 5 17 6
38 2 22 -3 54 1 80 10 23 8 42 13 42 10 0 -3 12 8 26 25 34 41 38 39 12 -5z
m-459 -15 l33 -40 -21 -20 c-11 -11 -21 -25 -21 -31 0 -6 10 -2 23 10 39 37
62 27 132 -61 21 -27 50 -54 65 -62 14 -7 32 -25 39 -39 13 -23 11 -28 -18
-64 -25 -32 -118 -92 -125 -80 -1 2 -30 34 -65 72 -47 52 -60 71 -49 77 8 6
-6 9 -37 9 -60 0 -90 -26 -93 -80 -3 -41 -18 -61 -28 -36 -4 10 1 25 11 36 18
20 18 20 -14 9 -18 -6 -35 -8 -39 -4 -8 7 29 74 67 122 24 31 27 32 86 27 95
-7 99 -9 155 -88 30 -42 60 -78 68 -81 17 -6 23 -16 -66 103 -43 58 -60 73
-88 78 -19 3 -33 11 -31 17 2 6 -8 22 -21 36 -32 34 -40 59 -35 99 7 44 30 41
72 -9z m-1689 -114 c-16 -116 -41 -178 -95 -236 -24 -25 -52 -64 -63 -86 -28
-55 -100 -93 -176 -93 -31 0 -56 5 -56 10 0 6 15 10 33 10 75 1 194 82 251
172 40 65 74 162 79 228 4 55 30 132 36 104 2 -10 -2 -59 -9 -109z m1564 98
c3 -10 26 -38 51 -62 24 -24 42 -48 39 -52 -14 -24 -82 1 -123 44 -23 25 -23
26 -5 56 21 35 30 39 38 14z m-1411 -93 c-5 -3 -24 -18 -44 -33 l-36 -26 13
37 c7 20 13 48 14 61 l0 25 30 -29 c17 -16 27 -32 23 -35z m505 1 c113 -77
245 -115 350 -100 l43 5 -7 -45 c-8 -59 -8 -59 -52 -71 -68 -18 -197 12 -324
76 -75 38 -87 50 -59 59 11 3 24 12 31 20 10 12 6 12 -25 4 -43 -12 -51 -8
-36 19 6 12 11 32 11 46 0 14 2 26 5 26 3 0 31 -18 63 -39z m893 -50 c-7 -11
-19 -21 -29 -21 -19 0 -82 36 -82 47 0 4 12 20 27 35 l27 28 34 -33 c30 -30
33 -37 23 -56z m-1606 -7 c-38 -146 -131 -269 -236 -312 l-54 -23 78 72 c77
71 147 161 162 209 12 41 59 133 62 123 2 -6 -3 -36 -12 -69z m609 11 c-4 -8
-12 -15 -20 -15 -17 0 -18 17 -1 23 22 9 27 7 21 -8z m580 -55 c9 -46 63 -171
101 -234 30 -51 32 -57 18 -72 -14 -14 -19 -12 -49 17 -18 18 -46 56 -61 85
-30 57 -60 78 -99 68 -31 -8 -32 11 -1 31 30 19 47 57 40 85 -4 16 0 27 12 36
27 20 32 18 39 -16z m375 11 c8 -5 9 -11 3 -15 -5 -3 -15 1 -22 9 -14 16 -3
20 19 6z m-865 -50 c87 -48 229 -91 302 -91 30 0 54 -4 54 -10 0 -5 -6 -10
-14 -10 -22 0 -65 -40 -85 -78 -10 -21 -26 -71 -36 -112 -10 -41 -22 -80 -27
-87 -9 -11 -48 5 -238 95 -60 28 -134 92 -156 133 -12 25 -11 33 11 83 14 31
25 63 25 70 0 11 53 38 89 45 2 1 36 -17 75 -38z m1062 -63 c35 -33 64 -67 64
-73 0 -7 -19 -15 -42 -18 -37 -6 -46 -3 -65 18 -28 31 -53 32 -54 3 -2 -57
-10 -74 -34 -65 -13 6 -18 20 -18 67 -1 34 16 96 31 113 26 29 51 20 118 -45z
m-736 -154 c5 -32 8 -60 6 -62 -3 -3 -63 24 -74 33 -1 1 2 15 8 31 12 30 40
67 47 60 2 -2 8 -29 13 -62z m100 40 c0 -12 -29 -34 -44 -34 -10 0 -6 36 5 47
14 14 39 6 39 -13z m-470 -135 c41 -20 108 -51 148 -69 39 -18 72 -37 72 -41
0 -4 -11 -20 -24 -36 l-24 -27 -69 65 c-38 36 -105 87 -149 113 -43 26 -94 58
-112 71 -18 13 -38 25 -44 27 -8 3 -8 10 1 25 10 21 13 19 68 -35 37 -37 85
-70 133 -93z m578 60 c23 -28 23 -29 4 -29 -11 0 -27 -2 -34 -5 -11 -5 -15 6
-16 47 -1 45 0 50 11 34 6 -10 23 -32 35 -47z m182 -45 c0 -2 -11 2 -25 8 -14
6 -25 15 -25 20 0 5 11 1 25 -8 14 -9 25 -18 25 -20z m-380 -4 c43 -17 44 -19
21 -27 -28 -11 -73 -5 -65 8 3 5 -3 6 -12 2 -12 -4 -15 -3 -10 5 5 8 2 10 -8
6 -12 -4 -16 0 -16 16 0 24 5 23 90 -10z m367 -18 c31 -17 47 -88 33 -142
l-11 -43 -47 7 c-47 6 -90 30 -152 86 -31 29 -32 30 -5 12 101 -66 155 -77
173 -37 17 37 15 50 -12 81 -21 26 -30 28 -117 33 -66 3 -87 7 -69 12 34 11
182 4 207 -9z m-251 -37 c2 -22 -1 -33 -7 -29 -6 3 -8 12 -5 19 3 8 0 15 -5
17 -6 2 -7 11 -3 21 9 24 15 15 20 -28z m-162 7 c5 -3 -8 -14 -28 -24 -21 -11
-39 -18 -41 -16 -2 2 -1 15 2 30 5 24 9 27 32 22 14 -4 30 -9 35 -12z m94 -16
c-11 -20 -10 -20 7 -6 18 14 18 13 0 -11 -13 -17 -23 -23 -27 -16 -9 15 -66
-13 -115 -56 -43 -39 -78 -53 -88 -37 -12 19 44 67 126 108 90 45 114 49 97
18z m285 -7 c10 -12 17 -32 15 -43 -6 -41 -67 -28 -145 31 -52 38 -43 47 40
40 58 -5 76 -11 90 -28z m-261 -46 c-6 -3 -10 -8 -7 -13 6 -10 -15 -60 -26
-60 -16 0 -20 20 -8 42 14 26 42 49 49 41 3 -3 -1 -8 -8 -10z m-52 4 c0 -2
-16 -19 -37 -38 -20 -18 -33 -28 -28 -20 4 8 2 17 -6 22 -13 8 -5 11 26 9 3
-1 13 6 21 15 14 14 24 19 24 12z m-80 -57 c0 -5 -5 -10 -11 -10 -5 0 -7 5 -4
10 3 6 8 10 11 10 2 0 4 -4 4 -10z m403 -141 c92 -145 97 -153 54 -104 -19 22
-43 56 -53 75 -10 19 -33 59 -51 88 -18 29 -33 55 -33 59 0 11 8 0 83 -118z
m-254 51 c0 -13 -1 -13 -8 0 -5 8 -12 26 -15 40 l-7 25 15 -25 c9 -14 15 -32
15 -40z m1227 -26 c-3 -9 -11 -12 -16 -9 -6 4 -9 2 -8 -3 3 -12 -89 -93 -142
-127 -43 -27 -137 -60 -207 -73 -47 -8 -55 -7 -75 12 l-23 21 67 7 c37 4 86
14 109 22 l41 14 -23 -24 c-12 -13 -18 -24 -12 -24 5 0 20 11 33 25 38 40 98
78 112 69 7 -4 10 -4 6 1 -5 5 4 16 20 25 15 9 45 37 67 62 31 35 42 42 48 31
5 -8 6 -21 3 -29z m-1048 -92 c3 -20 0 -23 -20 -20 -15 2 -24 11 -26 26 -3 20
0 23 20 20 15 -2 24 -11 26 -26z m1103 -35 c-8 -8 -11 -7 -11 4 0 20 13 34 18
19 3 -7 -1 -17 -7 -23z"/>
<path d="M1309 1999 c-17 -18 -37 -29 -53 -29 -72 0 -254 -123 -270 -183 -3
-13 16 2 51 41 31 36 76 73 104 87 69 35 69 31 3 -18 -33 -24 -72 -60 -87 -80
-16 -21 -38 -46 -50 -57 -18 -17 -18 -20 -4 -20 12 0 17 -8 17 -27 l1 -28 14
25 c14 24 14 24 15 3 0 -12 6 -23 13 -26 9 -3 9 -8 -3 -23 -11 -15 -11 -16 0
-6 16 13 50 16 50 4 0 -4 -6 -14 -12 -22 -7 -8 -3 -6 9 4 24 20 48 13 38 -12
-5 -14 -4 -14 12 0 13 12 23 14 36 7 11 -7 17 -7 17 0 0 5 -16 15 -35 21 -40
13 -75 53 -75 84 0 35 37 85 87 117 l48 30 6 -28 7 -28 1 27 c1 35 26 48 92
48 74 0 118 -34 121 -93 l1 -42 4 38 c3 25 8 35 16 30 13 -7 -4 17 -37 55 -15
16 -16 22 -5 22 12 0 11 2 -1 10 -13 9 -13 11 0 20 12 8 9 10 -11 10 -15 0
-32 6 -38 13 -8 11 -6 13 11 13 11 -1 23 6 26 14 4 12 2 13 -9 3 -20 -20 -31
-15 -23 10 6 20 4 19 -15 -5 -28 -35 -68 -40 -51 -7 17 31 8 30 -21 -2z"/>
<path d="M1891 1954 c0 -11 3 -14 6 -6 3 7 2 16 -1 19 -3 4 -6 -2 -5 -13z"/>
<path d="M1811 1914 c0 -11 3 -14 6 -6 3 7 2 16 -1 19 -3 4 -6 -2 -5 -13z"/>
<path d="M1380 1866 c0 -8 5 -18 10 -21 6 -3 10 1 10 9 0 8 -4 18 -10 21 -5 3
-10 -1 -10 -9z"/>
<path d="M1840 1846 c0 -2 8 -10 18 -17 15 -13 16 -12 3 4 -13 16 -21 21 -21
13z"/>
<path d="M1260 1781 c0 -9 59 -66 63 -60 1 2 -12 18 -30 36 -18 17 -33 28 -33
24z"/>
<path d="M1437 1740 c-9 -11 -27 -20 -39 -20 -12 0 -19 -3 -15 -6 11 -12 56 6
67 26 14 25 9 25 -13 0z"/>
<path d="M1797 1737 c3 -15 9 -30 14 -33 14 -8 10 20 -5 41 -13 18 -14 18 -9
-8z"/>
<path d="M1801 1674 c0 -11 3 -14 6 -6 3 7 2 16 -1 19 -3 4 -6 -2 -5 -13z"/>
<path d="M1825 1508 c7 -18 -9 -26 -66 -33 -19 -2 -36 1 -41 8 -9 15 -38 -53
-38 -91 0 -38 35 -82 65 -82 35 0 73 20 91 48 21 33 20 130 -2 152 -14 13 -14
13 -9 -2z"/>
<path d="M668 1597 c-16 -6 -28 -14 -28 -18 0 -11 38 2 51 17 6 8 10 14 8 13
-2 -1 -16 -6 -31 -12z"/>
<path d="M630 1526 c0 -19 3 -37 8 -40 4 -2 6 13 4 35 -5 48 -12 51 -12 5z"/>
<path d="M971 723 c13 -15 29 -32 34 -38 6 -6 28 -24 50 -40 28 -20 20 -9 -28
38 -68 67 -102 91 -56 40z"/>
<path d="M910 2768 c0 -4 21 -8 48 -7 52 1 48 6 -10 11 -21 2 -38 0 -38 -4z"/>
<path d="M1799 2543 c37 -38 75 -79 84 -93 l18 -25 -7 24 c-5 18 -3 22 7 16 8
-5 11 -4 6 1 -5 5 -12 9 -15 10 -4 0 -38 31 -75 67 -37 37 -72 67 -77 67 -5 0
22 -30 59 -67z"/>
<path d="M1136 2475 c11 -48 25 -76 18 -35 -4 19 -10 42 -15 50 -6 10 -7 5 -3
-15z"/>
<path d="M1710 2445 c13 -14 26 -25 28 -25 3 0 -5 11 -18 25 -13 14 -26 25
-28 25 -3 0 5 -11 18 -25z"/>
<path d="M1913 2425 c14 -52 19 -64 32 -68 26 -11 23 20 -7 54 -22 25 -28 29
-25 14z"/>
<path d="M1960 2416 c0 -2 7 -12 16 -20 17 -18 39 -22 29 -6 -7 11 -45 33 -45
26z"/>
<path d="M1772 2361 c18 -27 35 -48 36 -46 5 4 -57 95 -64 95 -2 0 10 -22 28
-49z"/>
<path d="M1899 2403 c-6 -56 -6 -73 2 -73 5 0 8 18 7 40 -1 35 -6 54 -9 33z"/>
<path d="M1166 2370 c3 -19 14 -60 24 -90 9 -30 25 -83 35 -118 10 -35 22 -59
27 -54 5 5 -10 65 -35 138 -53 156 -58 169 -51 124z"/>
<path d="M1091 2314 c0 -11 3 -14 6 -6 3 7 2 16 -1 19 -3 4 -6 -2 -5 -13z"/>
<path d="M1892 2308 c-15 -19 2 -48 19 -31 7 7 8 17 2 28 -8 13 -11 14 -21 3z"/>
<path d="M1820 2280 c6 -11 13 -20 16 -20 2 0 0 9 -6 20 -6 11 -13 20 -16 20
-2 0 0 -9 6 -20z"/>
<path d="M1925 2224 c6 -18 15 -37 20 -41 4 -5 5 0 2 10 -4 10 -7 27 -7 37 0
10 -6 20 -14 23 -11 4 -11 -1 -1 -29z"/>
<path d="M381 2224 c0 -11 3 -14 6 -6 3 7 2 16 -1 19 -3 4 -6 -2 -5 -13z"/>
<path d="M623 2190 c0 -30 2 -43 4 -27 2 15 2 39 0 55 -2 15 -4 2 -4 -28z"/>
<path d="M372 2180 c0 -14 2 -19 5 -12 2 6 2 18 0 25 -3 6 -5 1 -5 -13z"/>
<path d="M363 2115 c0 -22 2 -30 4 -17 2 12 2 30 0 40 -3 9 -5 -1 -4 -23z"/>
<path d="M1366 2121 c-4 -5 12 -7 36 -4 57 8 61 13 10 13 -22 0 -43 -4 -46 -9z"/>
<path d="M872 2075 c0 -16 2 -22 5 -12 2 9 2 23 0 30 -3 6 -5 -1 -5 -18z"/>
<path d="M356 1810 c5 -284 -7 -418 -45 -463 -97 -118 -162 -168 -253 -193
-61 -17 -82 -41 -25 -29 92 20 142 48 214 122 40 40 74 73 77 73 6 0 -13 -78
-30 -118 -31 -74 -107 -193 -144 -225 -21 -18 -63 -41 -94 -51 -31 -11 -56
-23 -56 -28 0 -12 9 -10 69 12 63 23 107 61 163 143 55 81 94 168 113 257 22
95 30 393 16 585 -9 133 -10 129 -5 -85z"/>
<path d="M302 1990 c0 -19 2 -27 5 -17 2 9 2 25 0 35 -3 9 -5 1 -5 -18z"/>
<path d="M287 1850 c-4 -47 -6 -119 -5 -160 1 -53 3 -32 9 70 10 161 7 223 -4
90z"/>
<path d="M761 1888 c-1 -19 49 -182 54 -176 2 2 -8 41 -21 88 -29 102 -32 110
-33 88z"/>
<path d="M257 1542 c-10 -39 -33 -92 -54 -123 -45 -66 -133 -152 -173 -169
-17 -7 -30 -19 -30 -27 0 -12 9 -10 40 8 62 37 144 123 178 186 31 60 66 166
60 184 -2 5 -11 -21 -21 -59z"/>
<path d="M388 1370 c-2 -22 0 -40 4 -40 5 0 8 18 8 40 0 22 -2 40 -4 40 -2 0
-6 -18 -8 -40z"/>
<path d="M372 1258 c-31 -188 -151 -344 -302 -393 -65 -21 -85 -35 -48 -35 14
0 58 17 98 37 144 74 250 229 266 389 4 35 5 64 2 64 -3 0 -10 -28 -16 -62z"/>
<path d="M480 407 c0 -4 15 -38 34 -75 28 -55 80 -202 111 -309 3 -13 11 -23
16 -23 12 0 15 -12 -35 135 -44 134 -125 308 -126 272z"/>
</g>
</svg>
